<?xml version="1.0" standalone="no"?>
<!DOCTYPE svg PUBLIC "-//W3C//DTD SVG 20010904//EN"
 "http://www.w3.org/TR/2001/REC-SVG-20010904/DTD/svg10.dtd">
<svg version="1.0" xmlns="http://www.w3.org/2000/svg"
 width="300.000000pt" height="300.000000pt" viewBox="0 0 300.000000 300.000000"
 preserveAspectRatio="xMidYMid meet">
<metadata>
Created by potrace 1.11, written by Peter Selinger 2001-2013
</metadata>
<g transform="translate(0.000000,300.000000) scale(0.100000,-0.100000)"
fill="#000000" stroke="none">
<path d="M1015 2938 c-3 -7 -4 -659 -3 -1448 l3 -1435 265 1 c260 0 267 1 346
27 101 33 183 86 254 163 67 73 107 146 155 284 60 174 78 300 78 555 1 404
-60 758 -198 1151 -31 87 -59 166 -62 176 -3 10 17 43 55 90 78 95 112 166
112 238 0 106 -59 168 -185 195 -94 20 -813 22 -820 3z m723 -220 c52 -52 -49
-164 -348 -389 -80 -60 -148 -109 -152 -109 -12 0 -9 365 3 397 14 37 57 82
94 99 40 18 385 20 403 2z m-10 -610 c189 -568 220 -1039 98 -1442 -67 -217
-223 -333 -400 -296 -72 15 -124 61 -162 142 l-29 63 -3 570 c-4 742 -1 765
130 892 68 66 297 235 309 228 3 -3 29 -73 57 -157z"/>
</g>
</svg>
